<svg xmlns="http://www.w3.org/2000/svg" width="406" height="276" fill="none"><g clip-path="url(#a)"><path fill="#000" d="M203 276c112.114 0 203-16.178 203-36.134 0-19.957-90.886-36.134-203-36.134S0 219.909 0 239.866C0 259.822 90.886 276 203 276" opacity=".1"/><path fill="#3F3D56" d="m89.068 116.574-17.072 102.41 77.192-7.989-3.34-8.716-60.306 4.903 14.102-90.79z"/><path fill="#3F3D56" d="M69.027.363 172.94 0 203 222.616l-104.283 13.8z"/><path fill="#fff" d="M80.346 8.897h83.872l29.319 207-86.47 11.621z"/><path fill="#3F3D56" d="M159.446 206.586c.527.988.92 2.055 1.607 2.945 2.004 2.622 5.808 3.033 8.662 4.743.143.071.26.182.337.32.13.301-.159.617-.437.806-2.164 1.485-5.003 1.518-7.649 1.5a10.4 10.4 0 0 1-2.646-.247c-1.399-.363-2.598-1.319-3.979-1.707a10.8 10.8 0 0 0-2.185-.302l-2.899-.192a7 7 0 0 1-2.26-.41 2.3 2.3 0 0 1-.93-.647 2.2 2.2 0 0 1-.495-1.006c-.082-.603.182-1.187.338-1.776.371-1.394.256-3.079 1.365-4.031a4.3 4.3 0 0 1 1.541-.726 50 50 0 0 1 6.164-1.605c1.718-.331 2.705.904 3.466 2.335m-32.784 7.855c.074.774.096 1.66-.475 2.201a2.57 2.57 0 0 1-1.244.545c-2.742.624-5.8.668-8.186-.792a2.3 2.3 0 0 1-.646-.541 1.95 1.95 0 0 1-.327-.999c-.085-1.028.238-2.041.531-3.032a52 52 0 0 0 1.577-7.173c.03-.199 7.003 1.09 7.467 1.765.583.836.586 2.84.742 3.835q.352 2.085.561 4.191"/><path fill="#192534" d="m152.617 119.94 1.856 16.883c.371 3.45.761 6.919.505 10.379-.297 3.995-1.44 7.99-.958 11.948.189 1.54.62 3.051.683 4.602a24 24 0 0 1-.16 3.086c-.838 10.245 1.815 20.41 3.3 30.582.238 1.255.291 2.536.156 3.806-.193 1.289-.579 2.981.593 3.591l-11.014 3.908c-1.407-1.725-.475-4.409-.743-6.599-.245-1.972-1.35-3.729-1.941-5.629-.534-1.706-.645-3.504-.82-5.276-.961-9.649-3.911-19.048-4.602-28.719a12.8 12.8 0 0 0-.371-2.771c-.371-1.202-1.113-2.251-1.655-3.381-.831-1.696-1.239-3.555-1.64-5.393l-2.357-10.803c-2.382 3.471-2.286 7.989-2.757 12.151-.661 5.81-2.138 11.523-3.34 17.261a34 34 0 0 0-.627 3.74c-.312 3.367.308 6.766-.023 10.129-.371 3.896-2.044 7.699-1.64 11.595.223 2.157 1.069 4.198 1.64 6.29.572 2.092.854 4.387-.018 6.381a20.45 20.45 0 0 0-9.542-1.031c-3.536-3.541-4.163-8.48-4.405-13.437-.241-4.957.342-9.922-.289-14.832-.186-1.452-.475-2.869-.523-4.318-.156-4.644 2.126-8.991 3.262-13.505a28 28 0 0 0 .285-12.402c-.556-2.713-1.514-5.346-1.855-8.095-.464-3.853.323-7.735 1.113-11.541.531-2.568 1.058-5.135 1.659-7.688.646-2.742 1.414-5.542 3.14-7.786 2.761-3.592 7.663-5.186 12.247-4.838 4.583.349 8.862 2.39 12.647 4.932a47.4 47.4 0 0 1 8.194 6.78"/><path fill="#FBBEBE" d="M140.304 55.29c-.208.328-.353.69-.427 1.069-.093.744.371 1.427.742 2.077.476.835.841 1.726 1.088 2.65a4.3 4.3 0 0 1 .159 1.77c-.09.445-.253.875-.482 1.27-.716 1.351-1.778 2.6-3.222 3.163a5.8 5.8 0 0 1-3.484.138 10.7 10.7 0 0 1-3.188-1.481 9.6 9.6 0 0 1-2.182-1.852 12.7 12.7 0 0 1-1.507-2.542c-.772-1.58-1.555-3.269-1.414-5.001q.01-.236.089-.461.183-.407.497-.727a9.35 9.35 0 0 0 2.272-6.59l5.407 1.201c1.191.265 2.382.53 3.559.86.965.273 2.449.65 3.076 1.493s-.556 2.194-.983 2.964"/><path fill="#FBBEBE" d="M137.409 54.39c5.427 0 9.827-4.305 9.827-9.616s-4.4-9.617-9.827-9.617-9.827 4.306-9.827 9.617c0 5.31 4.4 9.616 9.827 9.616"/><path fill="#F2F2F2" d="M135.828 64.174c.416-.89 1.314-1.453 2.134-2.012.82-.56 1.652-1.275 1.811-2.245.01-.219.065-.434.163-.632.316-.464 1.066-.232 1.515.11 1.091.831 1.833 2.011 2.557 3.163a27 27 0 0 1 2.393 4.426c1.043 2.692 1.169 5.63 1.284 8.502.104 2.615.204 5.27-.445 7.804-.408 1.605-1.113 3.163-1.154 4.816-.123 6.003-2.253 11.74-2.401 17.744-.011 1.735.078 3.47.267 5.196l.349 3.897a271 271 0 0 1-16.144-1.391c-.156-1.794-.679-3.533-1.158-5.269a112 112 0 0 1-3.752-21.695c-.285-3.893-.579-7.772-1.02-11.65-.397-3.527-1.177-7.075-.709-10.594.245-1.6.759-3.148 1.522-4.583a3.04 3.04 0 0 1 1.187-1.39 3.3 3.3 0 0 1 .839-.266 16 16 0 0 1 2.553-.294c.21-.017.421.002.624.058.361.177.658.458.849.806a15.34 15.34 0 0 0 6.736 5.499"/><path fill="#6C63FF" d="M131.271 63.404c.69.966 2.152 1.194 2.791 2.179.215.411.378.846.486 1.296.389 1.217 1.176 2.273 1.655 3.461.69 1.707.709 3.595.716 5.43a17.6 17.6 0 0 1-.341 4.357c-.223.897-.587 1.75-.854 2.637a12.6 12.6 0 0 0-.497 4.648c0 .338.092.67.267.962.252.292.58.51.95.632 1.088.469 2.227.948 3.414.84.244-.008.48-.085.68-.222.137-.123.25-.27.334-.432l.742-1.228c.672-1.122 1.373-2.379 1.113-3.66a7.2 7.2 0 0 0-.842-1.878 22 22 0 0 1-1.21-2.93c-1.184-3.33-2.383-6.708-2.65-10.224a8.8 8.8 0 0 1 .446-3.965c.348-.784.786-1.525 1.306-2.212a.99.99 0 0 0-1.043-.345q-.561.17-1.08.44c-1.091.45-2.301.286-3.403-.022-.431-.124-1.113-.545-1.559-.516-.152.018-1.395.795-1.421.752"/><path fill="#F2F2F2" d="M139.959 63.364c-.223-.174-.568-.334-.765-.131a.8.8 0 0 0-.141.294c-.193.509-.761.76-1.276.955-.516.196-1.073.305-1.385-.069a.81.81 0 0 1 .048-.97 3 3 0 0 1 .813-.671 7.75 7.75 0 0 0 3.236-4.983c.479.373.796.908.887 1.5.123.578.138 1.173.26 1.75.182.829.586 1.602.679 2.441.048.447 0 .897 0 1.344q.025.655.156 1.3c-.868-.9-1.481-1.958-2.512-2.76m-7.512-2.466c-.371-.345-.742-.672-1.113-1.024a14.1 14.1 0 0 1-3.589-5.575c-.475.364-.998.843-1.009 1.453.042.432.212.842.49 1.18a18.2 18.2 0 0 1 2.72 7.122c.2-.307.478-.558.806-.729a2.2 2.2 0 0 1 1.068-.248c.586 0 3.218 1.525 3.407 1.14.278-.603-2.334-2.909-2.78-3.319"/><path fill="#3F3D56" d="M140.734 58.007a30.94 30.94 0 0 0 12.462 7.383c.467.1.9.315 1.258.625.268.327.448.714.524 1.126.905 3.464 1.21 7.048 1.51 10.611.079.59.066 1.187-.037 1.772-.219.952-.909 1.722-1.588 2.437-2.131 2.234-4.561 4.569-4.921 7.605a12 12 0 0 1-.212 1.743c-.185.675-.597 1.27-.85 1.928-1.239 3.236 1.563 7.154-.144 10.169a18 18 0 0 1 1.877 5.541c.058.733.229 1.453.509 2.136.508 1.038 1.555 1.699 2.379 2.542 2.512 2.52 2.82 6.377 2.969 9.896.092 1.983.063 4.26-1.485 5.56-.894.759-2.115 1.006-3.284 1.195-1.555.254-3.247.435-4.624-.316-.987-.538-1.659-1.478-2.301-2.386-1.218-1.733-2.438-3.461-3.593-5.237-1.826-2.8-3.547-5.999-3.021-9.282-.148 3.359-.872 6.744-2.556 9.671s-4.398 5.371-7.69 6.337-7.14.283-9.593-2.07a12.7 12.7 0 0 1-2.045-2.699 26 26 0 0 1-3.021-7.521c-.16-.686-.278-1.452.074-2.066.167-.29.423-.519.598-.806.586-.977.022-2.208-.546-3.203-.865.08-1.484-.915-1.406-1.765s.597-1.587.964-2.361c1.077-2.28.839-4.935.32-7.394-.52-2.458-1.296-4.902-1.236-7.412.063-2.654-1.889-5.044-3.377-7.263-.832-1.249-1.8-2.411-2.524-3.722a11.78 11.78 0 0 1-.972-8.992 23.2 23.2 0 0 1 2.034-4.438l1.224-2.248a3.7 3.7 0 0 1 1.033-1.392 3.8 3.8 0 0 1 1.565-.787l8.473-3.268a13 13 0 0 0 3.058-1.496c1.035-.763 1.807-1.816 2.794-2.63a1.6 1.6 0 0 1 1.113-.476c.795.07 1.077 1.05 1.158 1.816.186 1.715 1.485 3.167 1.926 4.834 2.39 9.206 7.449 17.697 8.837 27.095 1.558-3.664 3.117-7.335 5.114-10.785q.473-.745.79-1.566a6.6 6.6 0 0 0 .264-2.43c-.101-2.363-.743-4.673-1.377-6.957-.824-3.109-1.566-5.974-2.424-9.054"/><path fill="#3F3D56" d="M156.882 86.137c.163 1.547.322 3.098.616 4.627.341 1.769.861 3.497 1.376 5.226.252.972.613 1.913 1.077 2.807q.252.392.397.832c.182.726-.234 1.452-.412 2.179-.535 2.179 1.069 4.601.059 6.609-.304.61-.835 1.115-1.035 1.769-.234.751 0 1.554.122 2.331.316 2.179-.445 4.394-1.195 6.49l-1.276 3.537c-1.166-2.121-2.342-4.263-3.953-6.083-.575-.654-1.202-1.26-1.733-1.95a13.6 13.6 0 0 1-1.855-3.537 30.1 30.1 0 0 1-1.919-9.341 6.3 6.3 0 0 1 .315-2.687q.37-.75.824-1.453c.995-1.754 1.199-3.83 1.18-5.836-.018-2.004-.237-4.016 0-6.01a13.5 13.5 0 0 1 1.485-4.768 6.8 6.8 0 0 1 2.015-2.459 3.7 3.7 0 0 1 2.227-.708c1.213.07.935 1.09 1.039 2.074zm-54.588-4.942a103 103 0 0 0-2.048 6.595 119 119 0 0 0-1.593 6.573 13.8 13.8 0 0 0-.4 2.956c.047 1.16.25 2.31.605 3.417 2.39 8.429 6.747 16.204 11.653 23.515a21.5 21.5 0 0 1 4.936-4.409c.152-.089.28-.213.371-.363a.97.97 0 0 0-.119-.85c-1.355-2.716-3.5-5.109-4.175-8.062-.282-1.227-.293-2.506-.613-3.726-.411-1.58-1.332-3.025-1.543-4.645-.227-1.765.371-3.69-.475-5.255 1.725-.657 2.724-2.397 3.455-4.063a22 22 0 0 0 1.662-5.342 15.8 15.8 0 0 0-2.007-10.223 16.4 16.4 0 0 0-3.359-4.126c-.442-.388-1.484-1.503-2.127-1.492-.857.018-1.131 1.376-1.376 1.986-.991 2.491-1.971 4.986-2.847 7.514"/><path fill="#FBBEBE" d="M117.666 121.843c.111.08.237.189.208.32-.03.13-.138.163-.234.218a2.82 2.82 0 0 0-1.069 1.416 39 39 0 0 0-1.611 4.173 18.4 18.4 0 0 0-2.909-3.323c-.846-.763-1.793-1.486-2.245-2.517 0-.029 1.944-1.434 2.122-1.587.546-.476 1.232-1.794 1.797-2.085.638-.326 1.246.956 1.733 1.471.668.709 1.408 1.35 2.208 1.914"/><path fill="#192534" d="M147.845 43.27c-.026-.476-.089-1.002-.46-1.31a1.8 1.8 0 0 0-1.114-.302c-2.163-.07-4.401.287-6.442-.425-1.344-.468-2.49-1.37-3.8-1.928-1.31-.56-2.988-.709-4.046.232-.801.726-1.02 1.841-1.298 2.869a16.7 16.7 0 0 1-3.203 6.217c-1.006-.305-1.726-1.184-2.19-2.106-1.577-3.145-.801-6.9.319-10.234a96 96 0 0 1 1.195-3.33l.906-2.44a4.9 4.9 0 0 0 3.102-1.511l.39.926a5 5 0 0 0 2.783-.963c.312.574 1.114.727 1.763.542.65-.186 1.21-.542 1.856-.727 1.725-.545 3.566.294 5.377.389q1.15-.028 2.297.065c2.138.338 3.649 2.306 4.302 4.325.434 1.344.794 2.997 2.148 3.472.03.509-.89.607-.968 1.09a.8.8 0 0 0 .111.46l1.243 2.612a3.15 3.15 0 0 1-1.796-.087c-.56 1.29-2.419 3.148-2.475 2.164"/><path fill="#FBBEBE" d="M210.845 48.954a47 47 0 0 1 1.485 6.075c.267 1.54.423 3.25-.479 4.536 3.437-5.059 7.025-10.27 12.247-13.535a10.9 10.9 0 0 1-2.374-3.916 10.7 10.7 0 0 1-.539-4.523c.029-.306-4.287 1.289-4.617 1.47-1.514.825-2.902 1.849-4.379 2.731-.765.454-3.949 1.53-3.979 2.18 0 .417 1.266 1.695 1.503 2.134.466.913.845 1.867 1.132 2.848"/><path fill="#fff" d="M226.814 239.75a5.86 5.86 0 0 0-5.878-.436c-1.681.85-2.813 2.458-4.342 3.548-2.628 1.866-6.097 2.015-9.174 3.025-.816.269-1.685.668-2.03 1.453a2.52 2.52 0 0 0 .152 2.022 5.3 5.3 0 0 0 2.546 2.568c1.381.646 2.969.675 4.498.694l13.286.152c4.082.047 8.19.094 12.247.592.946.116 1.97.243 2.805-.211 1.359-.726 1.514-2.564 1.411-4.078a36.8 36.8 0 0 0-2.598-11.185c-.16-.396-.371-.846-.82-.919a1.36 1.36 0 0 0-.884.276c-3.748 2.179-8.495 3.41-12.48 1.667"/><path fill="#3F3D56" d="M233.465 156.804c-1.485 8.436-.516 17.105 1.154 25.505a44 44 0 0 0 1.214 4.953c.597 1.852 1.402 3.632 1.963 5.495 1.425 4.721 1.224 9.769 1.013 14.697l-.972 22.425c-.082 1.881-.156 3.806.423 5.6.233.726.519 1.634-.071 2.124a1.66 1.66 0 0 1-.783.294 12.35 12.35 0 0 1-7.793-1.143l-.264-22.654c-.082-6.984-.167-13.996-1.265-20.893-.872-5.483-2.387-10.894-2.487-16.444-.104-5.81 1.351-11.544 2.835-17.177.32-1.206 1.485-2.088 2.442-2.905a3 3 0 0 1 1.188-.705c.445-.12 1.128.462 1.403.828"/><path fill="#000" d="M233.465 156.804c-1.485 8.436-.516 17.105 1.154 25.505a44 44 0 0 0 1.214 4.953c.597 1.852 1.402 3.632 1.963 5.495 1.425 4.721 1.224 9.769 1.013 14.697l-.972 22.425c-.082 1.881-.156 3.806.423 5.6.233.726.519 1.634-.071 2.124a1.66 1.66 0 0 1-.783.294 12.35 12.35 0 0 1-7.793-1.143l-.264-22.654c-.082-6.984-.167-13.996-1.265-20.893-.872-5.483-2.387-10.894-2.487-16.444-.104-5.81 1.351-11.544 2.835-17.177.32-1.206 1.485-2.088 2.442-2.905a3 3 0 0 1 1.188-.705c.445-.12 1.128.462 1.403.828" opacity=".1"/><path fill="#69696C" d="M205.598 130.439c-.549 2.212.616 4.503.486 6.777-.074 1.376-.627 2.749-.371 4.1s1.243 2.367 1.77 3.606a9.6 9.6 0 0 1 .601 3.225c.152 2.716.03 5.447-.074 8.153-.174 4.539-.304 9.104.308 13.603a41.8 41.8 0 0 0 3.218 11.313c.485.981.886 2 1.198 3.047q.308 1.464.409 2.956a29.5 29.5 0 0 0 2.623 9.337c.947 2.022 2.598 3.631 3.121 5.777.498 2.056.164 4.224.524 6.305.263 1.543.905 3.003 1.262 4.528.463 1.972.452 4.017.686 6.029.668 5.81 3.366 11.621 1.755 17.257-.322 1.133-.823 2.284-.597 3.439.111.567.393 1.126.267 1.689-.104.479-.482.85-.675 1.304-.371.849.022 1.859.683 2.516a7.3 7.3 0 0 0 2.412 1.395c2.735 1.144 5.567 2.306 8.535 2.28.361.019.721-.045 1.051-.188.534-.273.798-.865 1.024-1.409l1.522-3.683c.185-.447.371-.969.115-1.383a2.6 2.6 0 0 0-.639-.582c-1.228-1.013-.95-2.905-.623-4.426a63.3 63.3 0 0 0 1.38-11.876c.164-7.96-1.176-15.873-2.512-23.728-.464-2.728-.932-5.473-1.856-8.088s-2.286-5.131-2.063-7.848c.237-2.934-.542-6.01 0-8.904s1.399-5.727 1.952-8.618c.716-3.752.894-7.576 1.113-11.382.093-1.554.212-3.159.954-4.539.434-.806 1.065-1.496 1.551-2.277 1.255-2.03 1.455-4.547 2.654-6.609.568-.977 1.351-1.838 1.766-2.884a7.9 7.9 0 0 0 .453-2.564 30 30 0 0 0-.371-6.555 44.4 44.4 0 0 0-20.411-4.634c-2.713.044-5.456.313-8.002 1.231-2.427.883-4.638 2.121-7.199 2.31"/><path fill="#FFFCFC" d="M220.813 245.495c-1.091 1.329-1.016 3.228-1.714 4.793-.846 1.9-2.731 3.116-4.52 4.224l-11.134 6.9c-.608.363-1.261.81-1.484 1.485-.106.431-.087.883.055 1.304a5.64 5.64 0 0 0 1.441 2.418 5.8 5.8 0 0 0 2.449 1.446c.985.23 1.997.331 3.01.301l5.006.066c1.525.058 3.052 0 4.568-.174 1.388-.197 2.739-.585 4.12-.832 2.512-.447 5.095-.407 7.611-.839a41 41 0 0 0 4.558-1.151c1.818-.534 3.67-1.09 5.229-2.146a2.7 2.7 0 0 0 1.005-1.061c.264-.599.119-1.286-.029-1.921l-2.39-10.277a6.05 6.05 0 0 0-.936-2.401c-.53-.69-1.484-1.147-2.312-.853a5 5 0 0 0-.961.566c-1.225.788-2.794.919-4.242.672-.935-.163-2.171-.414-2.924-1.02-.572-.462-.742-1.177-1.228-1.7a3.5 3.5 0 0 0-1.206-.788 3.55 3.55 0 0 0-2.833.109 3.5 3.5 0 0 0-1.139.879"/><path fill="#FBBEBE" d="M213.595 47.537c7.406 0 13.409-5.874 13.409-13.12 0-7.247-6.003-13.121-13.409-13.121-7.405 0-13.408 5.874-13.408 13.12 0 7.247 6.003 13.121 13.408 13.121"/><path fill="#192534" d="M203.252 35.186c1.284-.704 1.284-2.734 2.598-3.41 1.314-.675 2.806.498 3.648 1.682a15.3 15.3 0 0 1 2.505 5.763c.119.588.23 1.231.683 1.642s1.047.46 1.626.519q2.542.248 5.091.45c1.893.149 3.89.269 5.608-.526a4.07 4.07 0 0 0 1.685-1.366c.34-.573.583-1.196.72-1.845.887-3.3 1.781-6.642 1.855-10.056.03-1.409-.096-2.869-.79-4.103-.405-.727-.999-1.358-1.166-2.157-.167-.8.372-1.816 1.218-1.73a5.1 5.1 0 0 1-2.227-.413c-.672-.363-1.169-1.144-.931-1.856-1.886.236-3.259-1.587-4.729-2.767a1.3 1.3 0 0 0-.898-.363 3.3 3.3 0 0 0-.742.28c-.742.254-1.518-.23-2.278-.44-2.042-.56-4.636.792-6.15-.661.145.926-1.017 1.547-1.974 1.529s-1.945-.363-2.85-.05c.131.234.207.494.224.761a1.8 1.8 0 0 1-.587 1.437c-.2.183-.438.32-.699.401l.449.959a2.55 2.55 0 0 0-1.234.622 2.46 2.46 0 0 0-.714 1.165c-.494 1.906-.371 4.616-.252 6.577.059.86.916 7.633.311 7.956"/><path fill="#6359FF" d="M214.694 51.329c-6.736 7.412-8.45 17.845-9.887 27.669l-2.115 14.504c-.549 3.763-1.113 7.525-1.592 11.298-.334 2.582-.646 5.204-.282 7.783.286 2.033.98 3.994 1.559 5.952a55 55 0 0 1 2.226 15.793c.449-1.292 2.004-1.815 3.37-2.106a55.6 55.6 0 0 1 34.091 3.563c1.874-5.139 1.521-10.761 2.044-16.193.743-7.747 3.3-15.253 4.057-22.985.278-2.88.311-5.774.341-8.668.022-2.125.045-4.271-.408-6.352-.505-2.302-1.57-4.449-2.672-6.537a169.6 169.6 0 0 0-19.12-28.83c-1.035-1.261-1.484-2.354-3.128-1.599-3.107 1.424-6.224 4.22-8.484 6.708"/><path fill="#FBBEBE" d="M218.553 113.022a37 37 0 0 1-4.924-.153c-1.214-.116-2.453-.29-3.637 0a3.8 3.8 0 0 0-1.414.68 1.03 1.03 0 0 0-.305 1.101 1.05 1.05 0 0 0 .91.714l1.269.109c.805.069 1.644.149 2.271.727.258.227.421.538.46.875.078.846-.671 1.307-1.343 1.659a10.7 10.7 0 0 0-2.62 1.707 3.52 3.52 0 0 0-1.087 2.179.42.42 0 0 0 .2.373.45.45 0 0 0 .43.016c1.485-.726 2.453-2.88 4.083-2.52a6.6 6.6 0 0 0-3.585 2.698 1.6 1.6 0 0 0 .183 2.012 1.69 1.69 0 0 0 2.043.287q.363-.208.698-.454a17 17 0 0 0 2.943-2.993c-1.188 2.452-2.39 5.32-1.024 7.757a.8.8 0 0 0 .306.322.8.8 0 0 0 .436.107c.43-.044.557-.44.627-.788.223-1.122.279-2.306.843-3.305 1.306-2.317 4.527-2.542 6.98-3.672 2.943-1.336 4.958-4.212 5.771-7.284a5.5 5.5 0 0 0 .145-2.768c-.546-2.066-3.151-2.542-4.825-1.543-2.052 1.275-3.243 2.077-5.834 2.157"/><path fill="#000" d="M215.948 72.374c2.598 3.925 7.107 6.137 10.974 8.894a9.1 9.1 0 0 1 2.427 2.258c.976 1.475 1.114 3.349.913 5.085-.252 2.291-1.006 4.495-1.752 6.682l-1.621 4.739c-1.028 3.007-2.09 6.075-4.045 8.603-.502.643-1.084 1.329-1.062 2.135.043.466.207.914.475 1.301a8.8 8.8 0 0 0 2.426 2.546 9 9 0 0 0 3.249 1.419c.7.175 1.433.175 2.133 0 1.002-.29 1.756-1.089 2.453-1.845 3.341-3.606 6.681-7.263 9.093-11.494 2.356-4.129 3.767-8.715 5.066-13.258a27.5 27.5 0 0 0 1.113-5.132c.275-3.268-.601-6.537-2.034-9.49-1.432-2.952-3.403-5.624-5.433-8.221a57.6 57.6 0 0 0-6.365-7.147c-4.037-3.693-8.977-5.865-14.38-3.77-3.815 1.482-5.244 4.572-5.586 8.53a12.76 12.76 0 0 0 1.956 8.165" opacity=".1"/><path fill="#6C63FF" d="M217.299 71.379c2.598 3.925 7.111 6.137 10.974 8.893a9.2 9.2 0 0 1 2.416 2.274c.976 1.474 1.113 3.344.913 5.084-.256 2.291-1.006 4.496-1.756 6.682l-1.621 4.721c-1.028 3.007-2.09 6.072-4.045 8.603-.498.643-1.08 1.326-1.058 2.136.041.465.204.912.475 1.296a8.8 8.8 0 0 0 2.423 2.549 9 9 0 0 0 3.248 1.421 4.44 4.44 0 0 0 2.137 0c1.002-.287 1.752-1.09 2.453-1.842 3.34-3.609 6.68-7.263 9.093-11.494 2.356-4.129 3.766-8.715 5.065-13.262a27 27 0 0 0 1.114-5.128c.274-3.268-.602-6.537-2.03-9.493-1.429-2.956-3.404-5.625-5.434-8.222a57.6 57.6 0 0 0-6.379-7.107c-4.034-3.69-8.974-5.865-14.377-3.766-3.819 1.482-5.244 4.569-5.589 8.53a12.77 12.77 0 0 0 1.978 8.125"/><path fill="#3F3D56" d="M299.36 201.64a13 13 0 0 1-.297 2.818 10 10 0 0 1-.119.512c-1.054 4.136-4.026 7.161-7.574 7.354h-.371c-3.752 0-6.925-3.167-7.972-7.528a8 8 0 0 1-.081-.364 13 13 0 0 1-.297-2.818c0-5.908 3.737-10.695 8.35-10.695s8.361 4.823 8.361 10.721"/><path fill="#000" d="M299.36 201.64a13 13 0 0 1-.297 2.818 10 10 0 0 1-.119.512h-.371a17 17 0 0 1-2.731-.363 17 17 0 0 1-4.342.719h-.646q-1.148 0-2.286-.149a17 17 0 0 1-3.589-.872q-.952.31-1.937.509a7 7 0 0 1-.081-.363c-.201-.927-.3-1.871-.297-2.818 0-5.909 3.737-10.695 8.35-10.695s8.346 4.804 8.346 10.702" opacity=".1"/><path fill="#7B798C" d="M317.174 181.717a16.26 16.26 0 0 0-1.819-7.485l-9.82 2.989 8.621-4.961a16.85 16.85 0 0 0-5.549-4.974 17.25 17.25 0 0 0-7.202-2.136 16.5 16.5 0 0 0-1.325-1.714l-14.102 4.296 11.567-6.657a17.16 17.16 0 0 0-7.562-3.21 17.3 17.3 0 0 0-8.215.655 17 17 0 0 0-6.931 4.366 16.5 16.5 0 0 0-4.012 7.046l12.08 13.608-13.104-9.275c-3.32 2.304-5.683 5.698-6.659 9.564a16.3 16.3 0 0 0 1.34 11.499c1.841 3.551 4.924 6.337 8.689 7.851a17.33 17.33 0 0 0 11.82.393 17.4 17.4 0 0 0 10.866.294c2.48.534 5.051.517 7.524-.049a17.2 17.2 0 0 0 6.765-3.224 16.7 16.7 0 0 0 4.678-5.767 16.3 16.3 0 0 0 1.674-7.179c0-.363 0-.726-.037-1.089.481-1.57.721-3.202.713-4.841"/><path fill="#000" d="M316.88 184.797a46.2 46.2 0 0 0-15.713-.197c-5.897.956-11.924 3.055-17.691 1.522-3.384-.901-6.309-2.985-9.615-4.144a18.64 18.64 0 0 0-9.928-.581 16.3 16.3 0 0 0-1.05 9.322 16.5 16.5 0 0 0 4.274 8.394 17.05 17.05 0 0 0 8.237 4.793c3.159.791 6.484.675 9.578-.334a17.4 17.4 0 0 0 10.866.294c2.48.534 5.052.517 7.524-.049a17.15 17.15 0 0 0 6.765-3.224 16.7 16.7 0 0 0 4.678-5.767 16.3 16.3 0 0 0 1.675-7.179c0-.363 0-.726-.038-1.089q.27-.87.438-1.761" opacity=".1"/></g><defs><clipPath id="a"><path fill="#fff" d="M0 0h406v276H0z"/></clipPath></defs></svg>